<svg xmlns="http://www.w3.org/2000/svg" xmlns:xlink="http://www.w3.org/1999/xlink" width="300" zoomAndPan="magnify" viewBox="0 0 224.87999 225" height="300" preserveAspectRatio="xMidYMid meet" version="1.0"><defs><clipPath id="b2497e10d9"><path d="M 0 0.0585938 L 224.761719 0.0585938 L 224.761719 224.9375 L 0 224.9375 Z M 0 0.0585938 " clip-rule="nonzero"/></clipPath><linearGradient x1="0" gradientTransform="matrix(0.7496, 0, 0, 0.7496, 0, 0.060015)" y1="150" x2="299.839987" gradientUnits="userSpaceOnUse" y2="150" id="d31cfa39fa"><stop stop-opacity="1" stop-color="rgb(100%, 87.098694%, 34.899902%)" offset="0"/><stop stop-opacity="1" stop-color="rgb(100%, 86.981201%, 34.881592%)" offset="0.0078125"/><stop stop-opacity="1" stop-color="rgb(100%, 86.74469%, 34.843445%)" offset="0.015625"/><stop stop-opacity="1" stop-color="rgb(100%, 86.509705%, 34.806824%)" offset="0.0234375"/><stop stop-opacity="1" stop-color="rgb(100%, 86.273193%, 34.770203%)" offset="0.03125"/><stop stop-opacity="1" stop-color="rgb(100%, 86.038208%, 34.733582%)" offset="0.0390625"/><stop stop-opacity="1" stop-color="rgb(100%, 85.801697%, 34.69696%)" offset="0.046875"/><stop stop-opacity="1" stop-color="rgb(100%, 85.566711%, 34.660339%)" offset="0.0546875"/><stop stop-opacity="1" stop-color="rgb(100%, 85.3302%, 34.623718%)" offset="0.0625"/><stop stop-opacity="1" stop-color="rgb(100%, 85.093689%, 34.587097%)" offset="0.0703125"/><stop stop-opacity="1" stop-color="rgb(100%, 84.858704%, 34.550476%)" offset="0.078125"/><stop stop-opacity="1" stop-color="rgb(100%, 84.622192%, 34.513855%)" offset="0.0859375"/><stop stop-opacity="1" stop-color="rgb(100%, 84.387207%, 34.477234%)" offset="0.09375"/><stop stop-opacity="1" stop-color="rgb(100%, 84.150696%, 34.440613%)" offset="0.101562"/><stop stop-opacity="1" stop-color="rgb(100%, 83.91571%, 34.403992%)" offset="0.109375"/><stop stop-opacity="1" stop-color="rgb(100%, 83.679199%, 34.367371%)" offset="0.117188"/><stop stop-opacity="1" stop-color="rgb(100%, 83.444214%, 34.33075%)" offset="0.125"/><stop stop-opacity="1" stop-color="rgb(100%, 83.207703%, 34.294128%)" offset="0.132812"/><stop stop-opacity="1" stop-color="rgb(100%, 82.972717%, 34.257507%)" offset="0.140625"/><stop stop-opacity="1" stop-color="rgb(100%, 82.736206%, 34.220886%)" offset="0.148437"/><stop stop-opacity="1" stop-color="rgb(100%, 82.501221%, 34.184265%)" offset="0.15625"/><stop stop-opacity="1" stop-color="rgb(100%, 82.264709%, 34.146118%)" offset="0.164062"/><stop stop-opacity="1" stop-color="rgb(100%, 82.028198%, 34.109497%)" offset="0.171875"/><stop stop-opacity="1" stop-color="rgb(100%, 81.793213%, 34.072876%)" offset="0.179687"/><stop stop-opacity="1" stop-color="rgb(100%, 81.556702%, 34.036255%)" offset="0.1875"/><stop stop-opacity="1" stop-color="rgb(100%, 81.321716%, 33.999634%)" offset="0.195312"/><stop stop-opacity="1" stop-color="rgb(100%, 81.085205%, 33.963013%)" offset="0.203125"/><stop stop-opacity="1" stop-color="rgb(100%, 80.85022%, 33.926392%)" offset="0.210938"/><stop stop-opacity="1" stop-color="rgb(100%, 80.613708%, 33.889771%)" offset="0.21875"/><stop stop-opacity="1" stop-color="rgb(100%, 80.378723%, 33.853149%)" offset="0.226562"/><stop stop-opacity="1" stop-color="rgb(100%, 80.142212%, 33.816528%)" offset="0.234375"/><stop stop-opacity="1" stop-color="rgb(100%, 79.907227%, 33.779907%)" offset="0.242188"/><stop stop-opacity="1" stop-color="rgb(100%, 79.670715%, 33.743286%)" offset="0.25"/><stop stop-opacity="1" stop-color="rgb(100%, 79.434204%, 33.706665%)" offset="0.257812"/><stop stop-opacity="1" stop-color="rgb(100%, 79.199219%, 33.670044%)" offset="0.265625"/><stop stop-opacity="1" stop-color="rgb(100%, 78.962708%, 33.633423%)" offset="0.273437"/><stop stop-opacity="1" stop-color="rgb(100%, 78.727722%, 33.596802%)" offset="0.28125"/><stop stop-opacity="1" stop-color="rgb(100%, 78.491211%, 33.560181%)" offset="0.289062"/><stop stop-opacity="1" stop-color="rgb(100%, 78.256226%, 33.52356%)" offset="0.296875"/><stop stop-opacity="1" stop-color="rgb(100%, 78.019714%, 33.486938%)" offset="0.304687"/><stop stop-opacity="1" stop-color="rgb(100%, 77.784729%, 33.450317%)" offset="0.3125"/><stop stop-opacity="1" stop-color="rgb(100%, 77.548218%, 33.41217%)" offset="0.320312"/><stop stop-opacity="1" stop-color="rgb(100%, 77.313232%, 33.375549%)" offset="0.328125"/><stop stop-opacity="1" stop-color="rgb(100%, 77.076721%, 33.338928%)" offset="0.335937"/><stop stop-opacity="1" stop-color="rgb(100%, 76.841736%, 33.302307%)" offset="0.34375"/><stop stop-opacity="1" stop-color="rgb(100%, 76.605225%, 33.265686%)" offset="0.351562"/><stop stop-opacity="1" stop-color="rgb(100%, 76.368713%, 33.229065%)" offset="0.359375"/><stop stop-opacity="1" stop-color="rgb(100%, 76.133728%, 33.192444%)" offset="0.367187"/><stop stop-opacity="1" stop-color="rgb(100%, 75.897217%, 33.155823%)" offset="0.375"/><stop stop-opacity="1" stop-color="rgb(100%, 75.662231%, 33.119202%)" offset="0.382812"/><stop stop-opacity="1" stop-color="rgb(100%, 75.42572%, 33.082581%)" offset="0.390625"/><stop stop-opacity="1" stop-color="rgb(100%, 75.190735%, 33.045959%)" offset="0.398438"/><stop stop-opacity="1" stop-color="rgb(100%, 74.954224%, 33.009338%)" offset="0.40625"/><stop stop-opacity="1" stop-color="rgb(100%, 74.719238%, 32.972717%)" offset="0.414062"/><stop stop-opacity="1" stop-color="rgb(100%, 74.482727%, 32.936096%)" offset="0.421875"/><stop stop-opacity="1" stop-color="rgb(100%, 74.247742%, 32.899475%)" offset="0.429688"/><stop stop-opacity="1" stop-color="rgb(100%, 74.01123%, 32.862854%)" offset="0.4375"/><stop stop-opacity="1" stop-color="rgb(100%, 73.774719%, 32.826233%)" offset="0.445312"/><stop stop-opacity="1" stop-color="rgb(100%, 73.539734%, 32.789612%)" offset="0.453125"/><stop stop-opacity="1" stop-color="rgb(100%, 73.303223%, 32.752991%)" offset="0.460938"/><stop stop-opacity="1" stop-color="rgb(100%, 73.068237%, 32.714844%)" offset="0.46875"/><stop stop-opacity="1" stop-color="rgb(100%, 72.831726%, 32.678223%)" offset="0.476562"/><stop stop-opacity="1" stop-color="rgb(100%, 72.596741%, 32.641602%)" offset="0.484375"/><stop stop-opacity="1" stop-color="rgb(100%, 72.360229%, 32.60498%)" offset="0.492188"/><stop stop-opacity="1" stop-color="rgb(100%, 72.125244%, 32.568359%)" offset="0.5"/><stop stop-opacity="1" stop-color="rgb(100%, 71.888733%, 32.531738%)" offset="0.507812"/><stop stop-opacity="1" stop-color="rgb(100%, 71.653748%, 32.495117%)" offset="0.515625"/><stop stop-opacity="1" stop-color="rgb(100%, 71.417236%, 32.458496%)" offset="0.523438"/><stop stop-opacity="1" stop-color="rgb(100%, 71.182251%, 32.421875%)" offset="0.53125"/><stop stop-opacity="1" stop-color="rgb(100%, 70.94574%, 32.385254%)" offset="0.539062"/><stop stop-opacity="1" stop-color="rgb(100%, 70.709229%, 32.348633%)" offset="0.546875"/><stop stop-opacity="1" stop-color="rgb(100%, 70.474243%, 32.312012%)" offset="0.554687"/><stop stop-opacity="1" stop-color="rgb(100%, 70.237732%, 32.275391%)" offset="0.5625"/><stop stop-opacity="1" stop-color="rgb(100%, 70.002747%, 32.23877%)" offset="0.570312"/><stop stop-opacity="1" stop-color="rgb(100%, 69.766235%, 32.202148%)" offset="0.578125"/><stop stop-opacity="1" stop-color="rgb(100%, 69.53125%, 32.165527%)" offset="0.585937"/><stop stop-opacity="1" stop-color="rgb(100%, 69.294739%, 32.128906%)" offset="0.59375"/><stop stop-opacity="1" stop-color="rgb(100%, 69.059753%, 32.092285%)" offset="0.601562"/><stop stop-opacity="1" stop-color="rgb(100%, 68.823242%, 32.055664%)" offset="0.609375"/><stop stop-opacity="1" stop-color="rgb(100%, 68.588257%, 32.019043%)" offset="0.617187"/><stop stop-opacity="1" stop-color="rgb(100%, 68.351746%, 31.980896%)" offset="0.625"/><stop stop-opacity="1" stop-color="rgb(100%, 68.115234%, 31.944275%)" offset="0.632812"/><stop stop-opacity="1" stop-color="rgb(100%, 67.880249%, 31.907654%)" offset="0.640625"/><stop stop-opacity="1" stop-color="rgb(100%, 67.643738%, 31.871033%)" offset="0.648437"/><stop stop-opacity="1" stop-color="rgb(100%, 67.408752%, 31.834412%)" offset="0.65625"/><stop stop-opacity="1" stop-color="rgb(100%, 67.172241%, 31.797791%)" offset="0.664062"/><stop stop-opacity="1" stop-color="rgb(100%, 66.937256%, 31.761169%)" offset="0.671875"/><stop stop-opacity="1" stop-color="rgb(100%, 66.700745%, 31.724548%)" offset="0.679687"/><stop stop-opacity="1" stop-color="rgb(100%, 66.465759%, 31.687927%)" offset="0.6875"/><stop stop-opacity="1" stop-color="rgb(100%, 66.229248%, 31.651306%)" offset="0.695312"/><stop stop-opacity="1" stop-color="rgb(100%, 65.994263%, 31.614685%)" offset="0.703125"/><stop stop-opacity="1" stop-color="rgb(100%, 65.757751%, 31.578064%)" offset="0.710937"/><stop stop-opacity="1" stop-color="rgb(100%, 65.522766%, 31.541443%)" offset="0.71875"/><stop stop-opacity="1" stop-color="rgb(100%, 65.286255%, 31.504822%)" offset="0.726562"/><stop stop-opacity="1" stop-color="rgb(100%, 65.049744%, 31.468201%)" offset="0.734375"/><stop stop-opacity="1" stop-color="rgb(100%, 64.814758%, 31.43158%)" offset="0.742187"/><stop stop-opacity="1" stop-color="rgb(100%, 64.578247%, 31.394958%)" offset="0.75"/><stop stop-opacity="1" stop-color="rgb(100%, 64.343262%, 31.358337%)" offset="0.757812"/><stop stop-opacity="1" stop-color="rgb(100%, 64.10675%, 31.321716%)" offset="0.765625"/><stop stop-opacity="1" stop-color="rgb(100%, 63.871765%, 31.283569%)" offset="0.773437"/><stop stop-opacity="1" stop-color="rgb(100%, 63.635254%, 31.246948%)" offset="0.78125"/><stop stop-opacity="1" stop-color="rgb(100%, 63.400269%, 31.210327%)" offset="0.789062"/><stop stop-opacity="1" stop-color="rgb(100%, 63.163757%, 31.173706%)" offset="0.796875"/><stop stop-opacity="1" stop-color="rgb(100%, 62.928772%, 31.137085%)" offset="0.804687"/><stop stop-opacity="1" stop-color="rgb(100%, 62.692261%, 31.100464%)" offset="0.8125"/><stop stop-opacity="1" stop-color="rgb(100%, 62.45575%, 31.063843%)" offset="0.820312"/><stop stop-opacity="1" stop-color="rgb(100%, 62.220764%, 31.027222%)" offset="0.828125"/><stop stop-opacity="1" stop-color="rgb(100%, 61.984253%, 30.990601%)" offset="0.835937"/><stop stop-opacity="1" stop-color="rgb(100%, 61.749268%, 30.953979%)" offset="0.84375"/><stop stop-opacity="1" stop-color="rgb(100%, 61.512756%, 30.917358%)" offset="0.851562"/><stop stop-opacity="1" stop-color="rgb(100%, 61.277771%, 30.880737%)" offset="0.859375"/><stop stop-opacity="1" stop-color="rgb(100%, 61.04126%, 30.844116%)" offset="0.867187"/><stop stop-opacity="1" stop-color="rgb(100%, 60.806274%, 30.807495%)" offset="0.875"/><stop stop-opacity="1" stop-color="rgb(100%, 60.569763%, 30.770874%)" offset="0.882812"/><stop stop-opacity="1" stop-color="rgb(100%, 60.334778%, 30.734253%)" offset="0.890625"/><stop stop-opacity="1" stop-color="rgb(100%, 60.098267%, 30.697632%)" offset="0.898437"/><stop stop-opacity="1" stop-color="rgb(100%, 59.863281%, 30.661011%)" offset="0.90625"/><stop stop-opacity="1" stop-color="rgb(100%, 59.62677%, 30.62439%)" offset="0.914062"/><stop stop-opacity="1" stop-color="rgb(100%, 59.390259%, 30.587769%)" offset="0.921875"/><stop stop-opacity="1" stop-color="rgb(100%, 59.155273%, 30.549622%)" offset="0.929687"/><stop stop-opacity="1" stop-color="rgb(100%, 58.918762%, 30.513%)" offset="0.9375"/><stop stop-opacity="1" stop-color="rgb(100%, 58.683777%, 30.476379%)" offset="0.945312"/><stop stop-opacity="1" stop-color="rgb(100%, 58.447266%, 30.439758%)" offset="0.953125"/><stop stop-opacity="1" stop-color="rgb(100%, 58.21228%, 30.403137%)" offset="0.960937"/><stop stop-opacity="1" stop-color="rgb(100%, 57.975769%, 30.366516%)" offset="0.96875"/><stop stop-opacity="1" stop-color="rgb(100%, 57.740784%, 30.329895%)" offset="0.976562"/><stop stop-opacity="1" stop-color="rgb(100%, 57.504272%, 30.293274%)" offset="0.984375"/><stop stop-opacity="1" stop-color="rgb(100%, 57.269287%, 30.256653%)" offset="0.992187"/><stop stop-opacity="1" stop-color="rgb(100%, 57.032776%, 30.220032%)" offset="1"/></linearGradient><clipPath id="1a9395abae"><path d="M 64.503906 76.640625 L 158.945312 76.640625 L 158.945312 202.121094 L 64.503906 202.121094 Z M 64.503906 76.640625 " clip-rule="nonzero"/></clipPath><clipPath id="6d479feb96"><path d="M 123.367188 56.035156 L 220.550781 56.035156 L 220.550781 120.917969 L 123.367188 120.917969 Z M 123.367188 56.035156 " clip-rule="nonzero"/></clipPath></defs><g clip-path="url(#b2497e10d9)"><path fill="#ffffff" d="M 0 0.0585938 L 224.878906 0.0585938 L 224.878906 224.941406 L 0 224.941406 Z M 0 0.0585938 " fill-opacity="1" fill-rule="nonzero"/><path fill="url(#d31cfa39fa)" d="M 0 0.0585938 L 0 224.941406 L 224.761719 224.941406 L 224.761719 0.0585938 Z M 0 0.0585938 " fill-rule="nonzero"/></g><path fill="#050606" d="M 143.253906 80.953125 C 143.269531 65.753906 129.476562 48.453125 112.4375 48.4375 C 95.398438 48.417969 81.566406 65.6875 81.550781 80.886719 C 81.535156 96.089844 95.359375 83.609375 112.398438 83.628906 C 129.441406 83.644531 143.238281 96.152344 143.253906 80.953125 " fill-opacity="1" fill-rule="nonzero"/><path fill="#050606" d="M 129.644531 84.683594 C 132.976562 85.632812 135.851562 86.453125 137.894531 86.453125 C 139.363281 86.457031 141.191406 86.457031 141.199219 80.953125 C 141.214844 67.15625 128.386719 50.484375 112.433594 50.464844 C 96.484375 50.449219 83.621094 67.097656 83.609375 80.890625 C 83.601562 86.398438 85.429688 86.398438 86.898438 86.402344 C 88.945312 86.402344 91.820312 85.589844 95.152344 84.648438 C 99.96875 83.285156 105.96875 81.59375 112.402344 81.597656 C 118.835938 81.605469 124.828125 83.3125 129.644531 84.683594 Z M 79.492188 80.886719 C 79.511719 64.925781 93.90625 46.386719 112.4375 46.40625 C 130.972656 46.425781 145.328125 64.992188 145.3125 80.953125 C 145.304688 87.304688 142.808594 90.519531 137.890625 90.515625 C 135.265625 90.511719 132.132812 89.617188 128.503906 88.585938 C 123.699219 87.21875 118.253906 85.664062 112.398438 85.660156 C 106.542969 85.652344 101.09375 87.195312 96.285156 88.550781 C 92.652344 89.578125 89.519531 90.464844 86.894531 90.460938 C 81.976562 90.457031 79.484375 87.234375 79.492188 80.886719 " fill-opacity="1" fill-rule="nonzero"/><path fill="#fbc122" d="M 111.949219 77.164062 C 136.8125 77.191406 156.953125 95.609375 156.921875 126.183594 C 156.890625 154.386719 142.457031 177.648438 120.277344 181.066406 C 118.410156 181.355469 104.765625 181.296875 102.664062 180.925781 C 80.851562 177.066406 66.847656 153.976562 66.875 126.089844 C 66.910156 95.515625 87.082031 77.136719 111.949219 77.164062 " fill-opacity="1" fill-rule="nonzero"/><g clip-path="url(#1a9395abae)"><path fill="#050606" d="M 68.824219 127.972656 C 68.792969 155.511719 82.8125 177.226562 102.914062 180.785156 C 106.113281 181.351562 118 181.207031 119.851562 180.917969 C 140.375 177.757812 154.726562 156.023438 154.753906 128.0625 C 154.78125 100.4375 137.136719 81.125 111.839844 81.101562 C 86.542969 81.074219 68.851562 100.347656 68.824219 127.972656 Z M 103.128906 185.644531 C 102.570312 185.105469 101.851562 184.773438 101.09375 184.617188 C 90.421875 182.410156 81.328125 175.820312 74.738281 165.503906 C 68.253906 155.363281 64.695312 142.03125 64.710938 127.96875 C 64.726562 112.824219 69.5 99.902344 78.511719 90.605469 C 87.039062 81.816406 98.875 76.980469 111.84375 76.992188 C 124.808594 77.007812 136.636719 81.867188 145.144531 90.675781 C 154.136719 99.992188 158.882812 112.921875 158.867188 128.070312 C 158.835938 157.089844 144.089844 179.925781 122.726562 184.5625 C 121.636719 184.796875 120.691406 185.460938 120.09375 186.402344 C 116.464844 192.128906 115.726562 203.105469 112.679688 202.050781 C 108.417969 200.578125 107.820312 190.179688 103.128906 185.644531 " fill-opacity="1" fill-rule="nonzero"/></g><path fill="#050606" d="M 76.5 161.5 C 116.28125 143.519531 147.71875 160.125 148.035156 160.292969 L 156.308594 142.851562 C 154.722656 141.992188 116.898438 122.003906 69.386719 143.484375 L 76.5 161.5 " fill-opacity="1" fill-rule="nonzero"/><path fill="#050606" d="M 65.503906 125.867188 C 105.289062 107.632812 156.609375 123.800781 156.921875 123.972656 L 151.914062 104.445312 C 150.328125 103.570312 119.902344 80.589844 72.386719 102.371094 L 65.503906 125.867188 " fill-opacity="1" fill-rule="nonzero"/><path fill="#050606" d="M 95.578125 56.3125 L 99.644531 55.847656 C 99.578125 55.542969 98.015625 48.285156 94.863281 40.71875 C 90.375 29.949219 85.199219 24.371094 79.042969 23.667969 C 73.136719 22.992188 67.410156 26.847656 61.535156 35.449219 L 65.21875 36.800781 C 70.046875 29.722656 74.601562 26.210938 78.410156 26.644531 C 86.503906 27.570312 93.234375 45.332031 95.578125 56.3125 " fill-opacity="1" fill-rule="nonzero"/><path fill="#050606" d="M 61.492188 31.496094 C 59.921875 35.875 61.71875 40.015625 65.503906 40.746094 C 69.289062 41.472656 73.628906 38.515625 75.199219 34.136719 C 76.765625 29.753906 74.972656 25.613281 71.1875 24.886719 C 67.402344 24.15625 63.058594 27.117188 61.492188 31.496094 " fill-opacity="1" fill-rule="nonzero"/><path fill="#050606" d="M 128.363281 56.347656 L 124.300781 55.875 C 124.367188 55.566406 125.945312 48.3125 129.113281 40.753906 C 133.625 29.996094 138.808594 24.429688 144.964844 23.738281 C 150.875 23.074219 156.59375 26.941406 162.449219 35.554688 L 158.765625 36.894531 C 153.949219 29.808594 149.402344 26.289062 145.59375 26.714844 C 137.5 27.625 130.730469 45.371094 128.363281 56.347656 " fill-opacity="1" fill-rule="nonzero"/><path fill="#050606" d="M 162.503906 31.601562 C 164.0625 35.984375 162.257812 40.121094 158.472656 40.84375 C 154.683594 41.5625 150.351562 38.59375 148.792969 34.214844 C 147.230469 29.828125 149.035156 25.691406 152.820312 24.972656 C 156.609375 24.25 160.941406 27.21875 162.503906 31.601562 " fill-opacity="1" fill-rule="nonzero"/><path fill="#ffffff" d="M 125.703125 115.074219 C 125.703125 115.074219 162.914062 89.601562 185.183594 106.203125 C 207.445312 122.8125 202.058594 144.503906 182.382812 150.027344 C 162.703125 155.550781 125.703125 115.074219 125.703125 115.074219 " fill-opacity="1" fill-rule="nonzero"/><path fill="#050606" d="M 128.613281 115.449219 C 135.351562 122.460938 161.601562 148.609375 178.394531 148.628906 C 179.65625 148.632812 180.839844 148.476562 181.921875 148.175781 C 190.527344 145.757812 196.390625 139.984375 197.617188 132.734375 C 199.035156 124.316406 194.125 115.214844 184.144531 107.773438 C 179.460938 104.28125 173.648438 102.507812 166.871094 102.5 C 151.085938 102.484375 134.222656 111.992188 128.613281 115.449219 Z M 124.410156 116.40625 L 122.875 114.730469 L 124.726562 113.460938 C 125.609375 112.859375 146.601562 98.644531 166.871094 98.667969 C 174.410156 98.675781 180.917969 100.683594 186.21875 104.636719 C 197.398438 112.972656 202.847656 123.460938 201.171875 133.410156 C 199.695312 142.167969 192.84375 149.074219 182.84375 151.878906 C 181.460938 152.269531 179.964844 152.464844 178.394531 152.460938 C 178.390625 152.460938 178.394531 152.460938 178.394531 152.460938 C 157.582031 152.441406 125.753906 117.878906 124.410156 116.40625 " fill-opacity="1" fill-rule="nonzero"/><path fill="#ffffff" d="M 126.207031 114.308594 C 126.207031 114.308594 147.757812 58.085938 182.902344 58.113281 C 218.046875 58.140625 227.503906 85.316406 210.558594 106.644531 C 193.613281 127.976562 126.207031 114.308594 126.207031 114.308594 " fill-opacity="1" fill-rule="nonzero"/><g clip-path="url(#6d479feb96)"><path fill="#050606" d="M 142.871094 87.277344 C 135.558594 97.765625 130.6875 108.382812 128.78125 112.847656 C 134.757812 113.917969 151.8125 116.683594 168.945312 116.703125 C 168.945312 116.703125 168.949219 116.703125 168.949219 116.703125 C 189.382812 116.726562 203.292969 112.820312 209.179688 105.410156 C 216.726562 95.914062 218.925781 84.96875 215.0625 76.136719 C 210.597656 65.914062 198.878906 60.042969 182.902344 60.027344 C 165.523438 60.015625 151.539062 74.835938 142.871094 87.277344 Z M 125.867188 116.191406 L 123.707031 115.753906 L 124.535156 113.585938 C 124.757812 113.003906 130.121094 99.144531 139.921875 85.0625 C 153.074219 66.164062 167.9375 56.183594 182.921875 56.195312 C 200.34375 56.214844 213.253906 62.894531 218.339844 74.523438 C 222.808594 84.742188 220.414062 97.210938 211.941406 107.882812 C 205.25 116.300781 190.785156 120.558594 168.945312 120.535156 C 168.945312 120.535156 168.945312 120.535156 168.941406 120.535156 C 147.433594 120.515625 126.082031 116.234375 125.867188 116.191406 " fill-opacity="1" fill-rule="nonzero"/></g><path fill="#ffffff" d="M 99.171875 115.074219 C 99.171875 115.074219 61.960938 89.601562 39.695312 106.203125 C 17.429688 122.8125 22.820312 144.503906 42.496094 150.027344 C 62.171875 155.550781 99.171875 115.074219 99.171875 115.074219 " fill-opacity="1" fill-rule="nonzero"/><path fill="#050606" d="M 58.007812 102.5 C 51.226562 102.507812 45.414062 104.28125 40.734375 107.773438 C 30.753906 115.214844 25.839844 124.316406 27.261719 132.734375 C 28.484375 139.984375 34.351562 145.757812 42.957031 148.175781 C 44.035156 148.476562 45.21875 148.632812 46.480469 148.628906 C 63.277344 148.609375 89.527344 122.460938 96.261719 115.449219 C 90.65625 111.992188 73.792969 102.484375 58.007812 102.5 Z M 46.484375 152.460938 C 44.910156 152.464844 43.414062 152.269531 42.035156 151.878906 C 32.035156 149.074219 25.183594 142.167969 23.707031 133.410156 C 22.027344 123.460938 27.480469 112.972656 38.65625 104.636719 C 43.957031 100.683594 50.464844 98.675781 58.003906 98.667969 C 78.273438 98.644531 99.265625 112.859375 100.148438 113.460938 L 102 114.730469 L 100.46875 116.40625 C 99.125 117.878906 67.292969 152.441406 46.484375 152.460938 " fill-opacity="1" fill-rule="nonzero"/><path fill="#ffffff" d="M 98.667969 114.308594 C 98.667969 114.308594 77.117188 58.085938 41.972656 58.113281 C 6.828125 58.140625 -2.628906 85.316406 14.316406 106.644531 C 31.265625 127.976562 98.667969 114.308594 98.667969 114.308594 " fill-opacity="1" fill-rule="nonzero"/><path fill="#050606" d="M 41.976562 60.027344 C 25.996094 60.042969 14.28125 65.914062 9.8125 76.136719 C 5.953125 84.96875 8.148438 95.914062 15.695312 105.410156 C 21.582031 112.820312 35.496094 116.726562 55.925781 116.703125 C 55.925781 116.703125 55.929688 116.703125 55.929688 116.703125 C 73.066406 116.683594 90.121094 113.917969 96.09375 112.847656 C 94.1875 108.382812 89.316406 97.765625 82.003906 87.277344 C 73.335938 74.835938 59.355469 60.015625 41.976562 60.027344 Z M 55.933594 120.535156 C 55.933594 120.535156 55.933594 120.535156 55.929688 120.535156 C 34.089844 120.558594 19.625 116.300781 12.9375 107.882812 C 4.460938 97.210938 2.070312 84.742188 6.535156 74.523438 C 11.621094 62.894531 24.53125 56.214844 41.957031 56.195312 C 56.9375 56.183594 71.800781 66.164062 84.953125 85.0625 C 94.753906 99.144531 100.117188 113.003906 100.34375 113.585938 L 101.171875 115.753906 L 99.007812 116.191406 C 98.792969 116.234375 77.441406 120.515625 55.933594 120.535156 " fill-opacity="1" fill-rule="nonzero"/></svg>